ply
format ascii 1.0
comment Created by Blender 2.72 (sub 0) - www.blender.org, source file: 'level (1).blend'
element vertex 134
property float x
property float y
property float z
property float nx
property float ny
property float nz
element face 36
property list uchar uint vertex_indices
end_header
10.439093 -7.150406 -0.381342 -0.691063 0.000000 0.722795
11.913964 -7.135942 1.028780 -0.691063 0.000000 0.722795
11.913964 -5.135942 1.028780 -0.691063 0.000000 0.722795
10.439093 -5.150406 -0.381342 -0.691063 0.000000 0.722795
17.387926 -7.148254 1.017221 0.484569 0.001380 0.874752
19.185169 -7.170727 0.024828 0.484569 0.001380 0.874752
19.181665 -5.156569 0.020439 0.484569 0.001380 0.874752
17.387926 -5.148254 1.017221 0.484569 0.001380 0.874752
7.957970 3.180096 1.002834 0.999718 0.000184 0.023728
7.979608 3.163502 -0.010255 0.999718 0.000184 0.023728
7.981581 5.191117 -0.007532 0.999718 0.000184 0.023728
7.955259 5.185195 1.000000 0.999718 0.000184 0.023728
5.389632 3.198469 1.005668 0.000569 0.002118 0.999998
7.957970 3.180096 1.002834 0.000569 0.002118 0.999998
7.955259 5.185195 1.000000 0.000569 0.002118 0.999998
5.390903 5.208667 1.000000 0.000569 0.002118 0.999998
2.857448 -1.411741 0.000000 -0.002754 -0.000041 0.999996
5.387618 1.438893 0.007085 -0.002754 -0.000041 0.999996
2.815915 1.412294 0.000000 -0.002754 -0.000041 0.999996
7.965549 -1.404349 0.000000 0.000545 -0.001998 0.999998
7.957833 1.430837 0.005668 0.000545 -0.001998 0.999998
5.387618 1.438893 0.007085 0.000545 -0.001998 0.999998
2.857448 -1.411741 0.000000 0.000004 -0.002489 0.999997
7.965549 -1.404349 0.000000 0.000004 -0.002489 0.999997
5.387618 1.438893 0.007085 0.000004 -0.002489 0.999997
2.815915 1.412294 0.000000 -0.186195 -0.001808 0.982511
0.500000 0.726424 -0.442823 -0.186195 -0.001808 0.982511
0.500000 -0.726423 -0.442823 -0.186195 -0.001808 0.982511
2.857448 -1.411741 0.000000 -0.186195 -0.001808 0.982511
-1.000000 1.419134 0.000000 0.663006 0.000000 0.748614
-1.000000 -1.419133 0.000000 0.663006 0.000000 0.748614
-0.500000 -0.726423 -0.442823 0.663006 0.000000 0.748614
-0.500000 0.726424 -0.442823 0.663006 0.000000 0.748614
-1.000000 1.419134 0.000000 0.000767 0.539790 -0.841800
2.815915 1.412294 0.000000 0.000767 0.539790 -0.841800
0.500000 0.726424 -0.442823 0.000767 0.539790 -0.841800
-0.500000 0.726424 -0.442823 0.000767 0.539790 -0.841800
-0.500000 -0.726423 -0.442823 0.000000 0.000000 1.000000
0.500000 -0.726423 -0.442823 0.000000 0.000000 1.000000
0.500000 0.726424 -0.442823 0.000000 0.000000 1.000000
-0.500000 0.726424 -0.442823 0.000000 0.000000 1.000000
-1.000000 1.419134 0.000000 -0.000000 -0.000000 1.000000
2.815915 1.412294 0.000000 -0.000000 -0.000000 1.000000
2.765375 6.036008 0.000000 -0.000000 -0.000000 1.000000
-1.000000 6.036008 0.000000 -0.000000 -0.000000 1.000000
-1.000000 -6.036008 0.000000 -0.000000 -0.000000 1.000000
2.848441 -6.036008 0.000000 -0.000000 -0.000000 1.000000
2.857448 -1.411741 0.000000 -0.000000 -0.000000 1.000000
-1.000000 -1.419133 0.000000 -0.000000 -0.000000 1.000000
-1.000000 -1.419133 0.000000 -0.000822 0.539874 0.841745
2.857448 -1.411741 0.000000 -0.000822 0.539874 0.841745
0.500000 -0.726423 -0.442823 -0.000822 0.539874 0.841745
-0.500000 -0.726423 -0.442823 -0.000822 0.539874 0.841745
5.387618 1.438893 0.007085 -0.001824 -0.494399 0.869233
7.957833 1.430837 0.005668 -0.001824 -0.494399 0.869233
7.957970 3.180096 1.002834 -0.001824 -0.494399 0.869233
5.389632 3.198469 1.005668 -0.001824 -0.494399 0.869233
7.979608 3.163502 -0.010255 -0.002009 -0.000070 0.999998
11.801867 3.165281 0.000000 -0.002009 -0.000070 0.999998
11.816932 5.192007 -0.002404 -0.002009 -0.000070 0.999998
7.981581 5.191117 -0.007532 -0.002009 -0.000070 0.999998
16.941525 14.434836 0.998025 0.999742 0.000693 0.022708
16.963161 14.418242 -0.015063 0.999742 0.000693 0.022708
16.963161 16.418243 -0.015063 0.999742 0.000693 0.022708
16.938814 16.439934 0.995192 0.999742 0.000693 0.022708
14.373187 14.453209 1.000860 0.000569 0.002118 0.999998
16.941525 14.434836 0.998025 0.000569 0.002118 0.999998
16.938814 16.439934 0.995192 0.000569 0.002118 0.999998
14.374458 16.463406 0.995192 0.000569 0.002118 0.999998
11.841003 9.842999 -0.004808 -0.002754 -0.000041 0.999996
14.371173 12.693632 0.002276 -0.002754 -0.000041 0.999996
11.799470 12.667033 -0.004808 -0.002754 -0.000041 0.999996
16.949104 9.850390 -0.004808 0.000545 -0.001998 0.999998
16.941387 12.685576 0.000859 0.000545 -0.001998 0.999998
14.371173 12.693632 0.002276 0.000545 -0.001998 0.999998
11.841003 9.842999 -0.004808 0.000004 -0.002489 0.999997
16.949104 9.850390 -0.004808 0.000004 -0.002489 0.999997
14.371173 12.693632 0.002276 0.000004 -0.002489 0.999997
11.799470 12.667033 -0.004808 -0.186195 -0.001808 0.982511
9.483555 11.981163 -0.447631 -0.186195 -0.001808 0.982511
9.483555 10.528316 -0.447631 -0.186195 -0.001808 0.982511
11.841003 9.842999 -0.004808 -0.186195 -0.001808 0.982511
7.983555 12.673874 -0.004808 0.663006 0.000000 0.748614
7.983555 9.835607 -0.004808 0.663006 0.000000 0.748614
8.483555 10.528316 -0.447631 0.663006 0.000000 0.748614
8.483555 11.981163 -0.447631 0.663006 0.000000 0.748614
7.983555 12.673874 -0.004808 0.000767 0.539789 -0.841800
11.799470 12.667033 -0.004808 0.000767 0.539789 -0.841800
9.483555 11.981163 -0.447631 0.000767 0.539789 -0.841800
8.483555 11.981163 -0.447631 0.000767 0.539789 -0.841800
8.483555 10.528316 -0.447631 0.000000 0.000000 1.000000
9.483555 10.528316 -0.447631 0.000000 0.000000 1.000000
9.483555 11.981163 -0.447631 0.000000 0.000000 1.000000
8.483555 11.981163 -0.447631 0.000000 0.000000 1.000000
7.983555 12.673874 -0.004808 0.000000 0.000000 1.000000
11.799470 12.667033 -0.004808 0.000000 0.000000 1.000000
11.748930 17.290749 -0.004808 0.000000 0.000000 1.000000
7.983555 17.290749 -0.004808 0.000000 0.000000 1.000000
7.981581 5.191117 -0.007532 -0.000666 -0.000032 1.000000
11.816932 5.192007 -0.002404 -0.000666 -0.000032 1.000000
11.841003 9.842999 -0.004808 -0.000666 -0.000032 1.000000
7.983555 9.835607 -0.004808 -0.000666 -0.000032 1.000000
7.983555 9.835607 -0.004808 -0.000822 0.539874 0.841745
11.841003 9.842999 -0.004808 -0.000822 0.539874 0.841745
9.483555 10.528316 -0.447631 -0.000822 0.539874 0.841745
8.483555 10.528316 -0.447631 -0.000822 0.539874 0.841745
14.371173 12.693632 0.002276 -0.001824 -0.494399 0.869233
16.941387 12.685576 0.000859 -0.001824 -0.494399 0.869233
16.941525 14.434836 0.998025 -0.001824 -0.494399 0.869233
14.373187 14.453209 1.000860 -0.001824 -0.494399 0.869233
16.963161 14.418242 -0.015063 -0.002314 0.000000 0.999997
21.395660 16.420021 -0.004808 -0.002314 0.000000 0.999997
16.963161 16.418243 -0.015063 -0.002314 0.000000 0.999997
19.188923 14.398320 -0.000312 -0.001166 0.003497 0.999993
21.389093 14.398765 0.002252 -0.001166 0.003497 0.999993
21.395660 16.420021 -0.004808 -0.001166 0.003497 0.999993
16.963161 14.418242 -0.015063 -0.006543 0.009366 0.999935
19.188923 14.398320 -0.000312 -0.006543 0.009366 0.999935
21.395660 16.420021 -0.004808 -0.006543 0.009366 0.999935
19.185169 -7.170727 0.024828 0.001065 0.002181 0.999997
21.374914 -5.151017 0.018091 0.001065 0.002181 0.999997
19.181665 -5.156569 0.020439 0.001065 0.002181 0.999997
19.181665 -5.156569 0.020439 -0.000051 0.000936 1.000000
21.374914 -5.151017 0.018091 -0.000051 0.000936 1.000000
21.389093 14.398765 0.002252 -0.000051 0.000936 1.000000
19.188923 14.398320 -0.000312 -0.000051 0.000936 1.000000
11.913964 -7.135942 1.028780 0.002112 0.000000 0.999998
17.387926 -7.148254 1.017221 0.002112 0.000000 0.999998
17.387926 -5.148254 1.017221 0.002112 0.000000 0.999998
11.913964 -5.135942 1.028780 0.002112 0.000000 0.999998
6.297728 -7.163316 -0.394374 -0.003147 0.000000 0.999995
10.439093 -7.150406 -0.381342 -0.003147 0.000000 0.999995
10.439093 -5.150406 -0.381342 -0.003147 0.000000 0.999995
6.297728 -5.163316 -0.394374 -0.003147 0.000000 0.999995
4 0 1 2 3
4 4 5 6 7
4 8 9 10 11
4 12 13 14 15
3 16 17 18
3 19 20 21
3 22 23 24
4 25 26 27 28
4 29 30 31 32
4 33 34 35 36
4 37 38 39 40
4 41 42 43 44
4 45 46 47 48
4 49 50 51 52
4 53 54 55 56
4 57 58 59 60
4 61 62 63 64
4 65 66 67 68
3 69 70 71
3 72 73 74
3 75 76 77
4 78 79 80 81
4 82 83 84 85
4 86 87 88 89
4 90 91 92 93
4 94 95 96 97
4 98 99 100 101
4 102 103 104 105
4 106 107 108 109
3 110 111 112
3 113 114 115
3 116 117 118
3 119 120 121
4 122 123 124 125
4 126 127 128 129
4 130 131 132 133
