ply
format ascii 1.0
comment Created by Blender 2.72 (sub 0) - www.blender.org, source file: 'level (1).blend'
element vertex 134
property float x
property float y
property float z
property float nx
property float ny
property float nz
element face 36
property list uchar uint vertex_indices
end_header
2.467850 -0.381342 11.312129 -0.691063 0.722795 0.000000
3.942722 1.028780 11.297666 -0.691063 0.722795 0.000000
3.942722 1.028780 9.297666 -0.691063 0.722795 0.000000
2.467850 -0.381342 9.312129 -0.691063 0.722795 0.000000
9.416684 1.017221 11.309978 0.484569 0.874752 -0.001380
11.213927 0.024828 11.332449 0.484569 0.874752 -0.001380
11.210423 0.020439 9.318291 0.484569 0.874752 -0.001380
9.416683 1.017221 9.309978 0.484569 0.874752 -0.001380
-0.013273 1.002834 0.981627 0.999718 0.023728 -0.000183
0.008365 -0.010255 0.998221 0.999718 0.023728 -0.000183
0.010338 -0.007532 -1.029394 0.999718 0.023728 -0.000183
-0.015984 1.000000 -1.023472 0.999718 0.023728 -0.000183
-2.581610 1.005668 0.963254 0.000569 0.999998 -0.002118
-0.013273 1.002834 0.981627 0.000569 0.999998 -0.002118
-0.015984 1.000000 -1.023472 0.000569 0.999998 -0.002118
-2.580339 1.000000 -1.046944 0.000569 0.999998 -0.002118
-5.113794 0.000000 5.573464 -0.002754 0.999996 0.000041
-2.583625 0.007085 2.722831 -0.002754 0.999996 0.000041
-5.155328 0.000000 2.749429 -0.002754 0.999996 0.000041
-0.005694 0.000000 5.566072 0.000545 0.999998 0.001998
-0.013409 0.005668 2.730886 0.000545 0.999998 0.001998
-2.583625 0.007085 2.722831 0.000545 0.999998 0.001998
-5.113794 0.000000 5.573464 0.000004 0.999997 0.002489
-0.005694 0.000000 5.566072 0.000004 0.999997 0.002489
-2.583625 0.007085 2.722831 0.000004 0.999997 0.002489
-5.155328 0.000000 2.749429 -0.186195 0.982511 0.001808
-7.471243 -0.442823 3.435300 -0.186195 0.982511 0.001808
-7.471243 -0.442823 4.888146 -0.186195 0.982511 0.001808
-5.113794 0.000000 5.573464 -0.186195 0.982511 0.001808
-8.971243 0.000000 2.742590 0.663006 0.748614 0.000000
-8.971243 0.000000 5.580857 0.663006 0.748614 0.000000
-8.471243 -0.442823 4.888146 0.663006 0.748614 0.000000
-8.471243 -0.442823 3.435300 0.663006 0.748614 0.000000
-8.971243 0.000000 2.742590 0.000767 -0.841799 -0.539790
-5.155328 0.000000 2.749429 0.000767 -0.841799 -0.539790
-7.471243 -0.442823 3.435300 0.000767 -0.841799 -0.539790
-8.471243 -0.442823 3.435300 0.000767 -0.841799 -0.539790
-8.471243 -0.442823 4.888146 0.000000 1.000000 -0.000000
-7.471243 -0.442823 4.888146 0.000000 1.000000 -0.000000
-7.471243 -0.442823 3.435300 0.000000 1.000000 -0.000000
-8.471243 -0.442823 3.435300 0.000000 1.000000 -0.000000
-8.971243 0.000000 2.742590 -0.000000 1.000000 0.000000
-5.155328 0.000000 2.749429 -0.000000 1.000000 0.000000
-5.205868 0.000000 -1.874285 -0.000000 1.000000 0.000000
-8.971243 0.000000 -1.874285 -0.000000 1.000000 0.000000
-8.971243 0.000000 10.197731 -0.000000 1.000000 0.000000
-5.122801 0.000000 10.197731 -0.000000 1.000000 0.000000
-5.113794 0.000000 5.573464 -0.000000 1.000000 0.000000
-8.971243 0.000000 5.580857 -0.000000 1.000000 0.000000
-8.971243 0.000000 5.580857 -0.000822 0.841745 -0.539874
-5.113794 0.000000 5.573464 -0.000822 0.841745 -0.539874
-7.471243 -0.442823 4.888146 -0.000822 0.841745 -0.539874
-8.471243 -0.442823 4.888146 -0.000822 0.841745 -0.539874
-2.583625 0.007085 2.722831 -0.001824 0.869233 0.494400
-0.013409 0.005668 2.730886 -0.001824 0.869233 0.494400
-0.013273 1.002834 0.981627 -0.001824 0.869233 0.494400
-2.581610 1.005668 0.963254 -0.001824 0.869233 0.494400
0.008365 -0.010255 0.998221 -0.002009 0.999998 0.000070
3.830625 0.000000 0.996442 -0.002009 0.999998 0.000070
3.845689 -0.002404 -1.030284 -0.002009 0.999998 0.000070
0.010338 -0.007532 -1.029394 -0.002009 0.999998 0.000070
8.970282 0.998025 -10.273113 0.999742 0.022709 -0.000693
8.991920 -0.015063 -10.256519 0.999742 0.022709 -0.000693
8.991919 -0.015063 -12.256519 0.999742 0.022709 -0.000693
8.967570 0.995192 -12.278212 0.999742 0.022709 -0.000693
6.401944 1.000860 -10.291486 0.000569 0.999998 -0.002118
8.970282 0.998025 -10.273113 0.000569 0.999998 -0.002118
8.967570 0.995192 -12.278212 0.000569 0.999998 -0.002118
6.403215 0.995192 -12.301683 0.000569 0.999998 -0.002118
3.869760 -0.004808 -5.681275 -0.002754 0.999996 0.000041
6.399930 0.002276 -8.531909 -0.002754 0.999996 0.000041
3.828227 -0.004808 -8.505310 -0.002754 0.999996 0.000041
8.977860 -0.004808 -5.688668 0.000545 0.999998 0.001998
8.970145 0.000859 -8.523853 0.000545 0.999998 0.001998
6.399930 0.002276 -8.531909 0.000545 0.999998 0.001998
3.869760 -0.004808 -5.681275 0.000004 0.999997 0.002489
8.977860 -0.004808 -5.688668 0.000004 0.999997 0.002489
6.399930 0.002276 -8.531909 0.000004 0.999997 0.002489
3.828227 -0.004808 -8.505310 -0.186195 0.982511 0.001808
1.512312 -0.447631 -7.819440 -0.186195 0.982511 0.001808
1.512312 -0.447631 -6.366594 -0.186195 0.982511 0.001808
3.869760 -0.004808 -5.681275 -0.186195 0.982511 0.001808
0.012312 -0.004808 -8.512151 0.663006 0.748614 -0.000000
0.012312 -0.004808 -5.673883 0.663006 0.748614 -0.000000
0.512312 -0.447631 -6.366594 0.663006 0.748614 -0.000000
0.512312 -0.447631 -7.819440 0.663006 0.748614 -0.000000
0.012312 -0.004808 -8.512151 0.000767 -0.841800 -0.539790
3.828227 -0.004808 -8.505310 0.000767 -0.841800 -0.539790
1.512312 -0.447631 -7.819440 0.000767 -0.841800 -0.539790
0.512312 -0.447631 -7.819440 0.000767 -0.841800 -0.539790
0.512312 -0.447631 -6.366594 0.000000 1.000000 -0.000000
1.512312 -0.447631 -6.366594 0.000000 1.000000 -0.000000
1.512312 -0.447631 -7.819440 0.000000 1.000000 -0.000000
0.512312 -0.447631 -7.819440 0.000000 1.000000 -0.000000
0.012312 -0.004808 -8.512151 0.000000 1.000000 -0.000000
3.828227 -0.004808 -8.505310 0.000000 1.000000 -0.000000
3.777686 -0.004808 -13.129025 0.000000 1.000000 -0.000000
0.012311 -0.004808 -13.129025 0.000000 1.000000 -0.000000
0.010338 -0.007532 -1.029394 -0.000666 1.000000 0.000032
3.845689 -0.002404 -1.030284 -0.000666 1.000000 0.000032
3.869760 -0.004808 -5.681275 -0.000666 1.000000 0.000032
0.012312 -0.004808 -5.673883 -0.000666 1.000000 0.000032
0.012312 -0.004808 -5.673883 -0.000822 0.841745 -0.539874
3.869760 -0.004808 -5.681275 -0.000822 0.841745 -0.539874
1.512312 -0.447631 -6.366594 -0.000822 0.841745 -0.539874
0.512312 -0.447631 -6.366594 -0.000822 0.841745 -0.539874
6.399930 0.002276 -8.531909 -0.001824 0.869233 0.494399
8.970145 0.000859 -8.523853 -0.001824 0.869233 0.494399
8.970282 0.998025 -10.273113 -0.001824 0.869233 0.494399
6.401944 1.000860 -10.291486 -0.001824 0.869233 0.494399
8.991920 -0.015063 -10.256519 -0.002314 0.999997 0.000000
13.424416 -0.004808 -12.258299 -0.002314 0.999997 0.000000
8.991919 -0.015063 -12.256519 -0.002314 0.999997 0.000000
11.217681 -0.000312 -10.236598 -0.001166 0.999993 -0.003497
13.417850 0.002252 -10.237042 -0.001166 0.999993 -0.003497
13.424416 -0.004808 -12.258299 -0.001166 0.999993 -0.003497
8.991920 -0.015063 -10.256519 -0.006543 0.999935 -0.009366
11.217681 -0.000312 -10.236598 -0.006543 0.999935 -0.009366
13.424416 -0.004808 -12.258299 -0.006543 0.999935 -0.009366
11.213927 0.024828 11.332449 0.001065 0.999997 -0.002181
13.403671 0.018091 9.312739 0.001065 0.999997 -0.002181
11.210423 0.020439 9.318291 0.001065 0.999997 -0.002181
11.210423 0.020439 9.318291 -0.000051 1.000000 -0.000936
13.403671 0.018091 9.312739 -0.000051 1.000000 -0.000936
13.417850 0.002252 -10.237042 -0.000051 1.000000 -0.000936
11.217681 -0.000312 -10.236598 -0.000051 1.000000 -0.000936
3.942722 1.028780 11.297666 0.002112 0.999998 -0.000000
9.416684 1.017221 11.309978 0.002112 0.999998 -0.000000
9.416683 1.017221 9.309978 0.002112 0.999998 -0.000000
3.942722 1.028780 9.297666 0.002112 0.999998 -0.000000
-1.673515 -0.394374 11.325039 -0.003147 0.999995 0.000000
2.467850 -0.381342 11.312129 -0.003147 0.999995 0.000000
2.467850 -0.381342 9.312129 -0.003147 0.999995 0.000000
-1.673515 -0.394374 9.325039 -0.003147 0.999995 0.000000
4 0 1 2 3
4 4 5 6 7
4 8 9 10 11
4 12 13 14 15
3 16 17 18
3 19 20 21
3 22 23 24
4 25 26 27 28
4 29 30 31 32
4 33 34 35 36
4 37 38 39 40
4 41 42 43 44
4 45 46 47 48
4 49 50 51 52
4 53 54 55 56
4 57 58 59 60
4 61 62 63 64
4 65 66 67 68
3 69 70 71
3 72 73 74
3 75 76 77
4 78 79 80 81
4 82 83 84 85
4 86 87 88 89
4 90 91 92 93
4 94 95 96 97
4 98 99 100 101
4 102 103 104 105
4 106 107 108 109
3 110 111 112
3 113 114 115
3 116 117 118
3 119 120 121
4 122 123 124 125
4 126 127 128 129
4 130 131 132 133
