ply
format ascii 1.0
comment Created by Blender 2.72 (sub 0) - www.blender.org, source file: 'level.blend'
element vertex 12
property float x
property float y
property float z
property float nx
property float ny
property float nz
element face 7
property list uchar uint vertex_indices
end_header
-6 0 -1 -0.000000 1.000000 0.000000
-6 0 1 -0.000000 1.000000 0.000000
-1.5 0 -1 -0.000000 1.000000 0.000000
-1.5 0 1 -0.000000 1.000000 0.000000
-0.75 -0.5 -0.5 -0.538612 -0.842554 0.000000
-0.75 -0.5 0.5 -0.538612 -0.842554 0.000000
0.75 -0.5 -0.5 -0.538612 0.842554 0.000000
0.75 -0.5 0.5 -0.000000 0.748614 -0.663006
1.5 0 -1 -0.538612 0.842554 0.000000
1.5 0 1 -0.538612 0.842554 0.000000
6 0 -1 -0.000000 1.000000 0.000000
6 0 1 -0.000000 1.000000 0.000000
4 0 1 3 2
4 2 3 5 4
4 4 5 7 6
4 6 7 9 8
4 8 9 11 10
4 5 3 9 7
4 4 6 8 2
