ply
format ascii 1.0
comment Created by Blender 2.72 (sub 0) - www.blender.org, source file: 'level.blend'
element vertex 28
property float x
property float y
property float z
property float nx
property float ny
property float nz
element face 7
property list uchar uint vertex_indices
end_header
-1.419133 -0.000000 1.000000 -0.000000 1.000000 0.000000
-1.419133 -0.000000 -1.000000 -0.000000 1.000000 0.000000
-6.036008 -0.000000 -1.000000 -0.000000 1.000000 0.000000
-6.036008 -0.000000 1.000000 -0.000000 1.000000 0.000000
6.036008 0.000000 1.000000 -0.000000 1.000000 0.000000
6.036008 0.000000 -1.000000 -0.000000 1.000000 0.000000
1.419133 0.000000 -1.000000 -0.000000 1.000000 0.000000
1.419133 0.000000 1.000000 -0.000000 1.000000 0.000000
-1.419133 -0.000000 1.000000 -0.000000 0.748614 -0.663006
1.419133 0.000000 1.000000 -0.000000 0.748614 -0.663006
0.726423 -0.442822 0.500000 -0.000000 0.748614 -0.663006
-0.726423 -0.442823 0.500000 -0.000000 0.748614 -0.663006
-1.419133 -0.000000 1.000000 -0.538612 -0.842554 0.000000
-1.419133 -0.000000 -1.000000 -0.538612 -0.842554 0.000000
-0.726423 -0.442823 -0.500000 -0.538612 -0.842554 0.000000
-0.726423 -0.442823 0.500000 -0.538612 -0.842554 0.000000
1.419133 0.000000 1.000000 -0.538612 0.842554 0.000000
1.419133 0.000000 -1.000000 -0.538612 0.842554 0.000000
0.726423 -0.442822 -0.500000 -0.538612 0.842554 0.000000
0.726423 -0.442822 0.500000 -0.538612 0.842554 0.000000
0.726423 -0.442822 0.500000 -0.000000 1.000000 0.000000
0.726423 -0.442822 -0.500000 -0.000000 1.000000 0.000000
-0.726423 -0.442823 -0.500000 -0.000000 1.000000 0.000000
-0.726423 -0.442823 0.500000 -0.000000 1.000000 0.000000
-1.419133 -0.000000 -1.000000 0.000000 0.748614 0.663006
-0.726423 -0.442823 -0.500000 0.000000 0.748614 0.663006
0.726423 -0.442822 -0.500000 0.000000 0.748614 0.663006
1.419133 0.000000 -1.000000 0.000000 0.748614 0.663006
4 0 1 2 3
4 4 5 6 7
4 8 9 10 11
4 12 13 14 15
4 16 17 18 19
4 20 21 22 23
4 24 25 26 27
